<mxfile host="65bd71144e">
    <diagram id="CwWZgxuIJMaBkQa4M9bY" name="Page-1">
        <mxGraphModel dx="1189" dy="816" grid="0" gridSize="10" guides="1" tooltips="1" connect="1" arrows="1" fold="1" page="1" pageScale="1" pageWidth="850" pageHeight="1400" background="#ffffff" math="0" shadow="0">
            <root>
                <mxCell id="0"/>
                <mxCell id="1" parent="0"/>
                <mxCell id="18" style="edgeStyle=none;html=1;strokeColor=#000000;strokeWidth=2;fontSize=14;fontColor=#000000;" edge="1" parent="1" source="2" target="3">
                    <mxGeometry relative="1" as="geometry"/>
                </mxCell>
                <mxCell id="2" value="" style="rounded=1;whiteSpace=wrap;html=1;fillColor=#bac8d3;strokeColor=#23445d;" vertex="1" parent="1">
                    <mxGeometry x="184" y="161.2" width="168" height="146.8" as="geometry"/>
                </mxCell>
                <mxCell id="3" value="" style="rounded=1;whiteSpace=wrap;html=1;fillColor=#b1ddf0;strokeColor=#10739e;" vertex="1" parent="1">
                    <mxGeometry x="475.59" y="159.1" width="172.41" height="144.9" as="geometry"/>
                </mxCell>
                <mxCell id="22" style="edgeStyle=none;html=1;strokeColor=#000000;strokeWidth=2;fontSize=13;fontColor=#000000;" edge="1" parent="1" source="4">
                    <mxGeometry relative="1" as="geometry">
                        <mxPoint x="651" y="235" as="targetPoint"/>
                    </mxGeometry>
                </mxCell>
                <mxCell id="4" value="" style="rounded=1;whiteSpace=wrap;html=1;fillColor=#fad7ac;strokeColor=#b46504;" vertex="1" parent="1">
                    <mxGeometry x="791" y="160" width="247" height="150" as="geometry"/>
                </mxCell>
                <mxCell id="5" value="" style="points=[];aspect=fixed;html=1;align=center;shadow=0;dashed=0;image;image=img/lib/allied_telesis/computer_and_terminals/Personal_Computer_with_Server.svg;" vertex="1" parent="1">
                    <mxGeometry x="71" y="70" width="62.400000000000006" height="62.400000000000006" as="geometry"/>
                </mxCell>
                <mxCell id="6" value="" style="points=[];aspect=fixed;html=1;align=center;shadow=0;dashed=0;image;image=img/lib/allied_telesis/computer_and_terminals/Personal_Computer_with_Server.svg;" vertex="1" parent="1">
                    <mxGeometry x="4" y="190" width="62.400000000000006" height="62.400000000000006" as="geometry"/>
                </mxCell>
                <mxCell id="8" style="edgeStyle=none;html=1;strokeWidth=2;strokeColor=#000000;" edge="1" parent="1" source="7" target="2">
                    <mxGeometry relative="1" as="geometry"/>
                </mxCell>
                <mxCell id="7" value="" style="points=[];aspect=fixed;html=1;align=center;shadow=0;dashed=0;image;image=img/lib/allied_telesis/computer_and_terminals/Personal_Computer_with_Server.svg;" vertex="1" parent="1">
                    <mxGeometry x="71" y="318" width="62.400000000000006" height="62.400000000000006" as="geometry"/>
                </mxCell>
                <mxCell id="11" style="edgeStyle=none;html=1;strokeWidth=2;strokeColor=#000000;" edge="1" parent="1">
                    <mxGeometry relative="1" as="geometry">
                        <mxPoint x="132.9078864353313" y="132.39999999999998" as="sourcePoint"/>
                        <mxPoint x="178.7728706624606" y="179" as="targetPoint"/>
                    </mxGeometry>
                </mxCell>
                <mxCell id="12" style="edgeStyle=none;html=1;strokeWidth=2;strokeColor=#000000;" edge="1" parent="1">
                    <mxGeometry relative="1" as="geometry">
                        <mxPoint x="66.39999999999998" y="222.30615224191877" as="sourcePoint"/>
                        <mxPoint x="166" y="225.83733055265907" as="targetPoint"/>
                    </mxGeometry>
                </mxCell>
                <mxCell id="15" value="" style="shape=image;verticalLabelPosition=bottom;labelBackgroundColor=default;verticalAlign=top;aspect=fixed;imageAspect=0;image=data:image/png,iVBORw0KGgoAAAANSUhEUgAAAe8AAACZCAYAAAAGhbKlAAAACXBIWXMAAAsSAAALEgHS3X78AAATMElEQVR4nO3dT2wc53nH8XcMg5YvsdYFEjSHSJXTQ0/eViabHgQTjRTERRKzRWX01MgXqUBQVD3R4aXqhZCBAtUx0qFm0EsgogWVJnEcCZEMFylCisgqORQ9mJCAoOipsk62WXKneJlniNHLmZ133hly32fm+wFor7SzM8PXxv7m/Z+kaWoAAIAez/DfCgAAXQhvAACUIbwBAFCG8AYAQBnCGwAAZQhvAACUIbwBAFCG8AYAQBnCGwAAZQhvAACUIbwBAFCG8AYAQBnCGwAAZQhvAACUIbwBAFCG8AYAQBnCGwAAZQhvAACUIbwBAFCG8AYAQBnCGwAAZQhvAACUIbwBAFCG8AYAQBnCGwAAZQhvAACUIbwBAFCG8AYAQBnCGwAAZQhvAACUIbwBAFCG8AYAQBnCGwAAZQhvAACUIbwBAFCG8AYAQJlnu/wf7Nf3d+Z3U2P2fsap/Fv+nBb8ef917vj9Y9o5fic1ZuwcvyPHj3PH7+TuJzvefva9bw/uRVC0AIAp6nR4G2PuRnAPbUu69esAAOqi2RwAAGUIbwAAlCG8AQBQhvAGAEAZwhsAAGU6Odp8bnn7uDFm+J0zz5jfOhbBDQEA0CL14T23vH3SGDNvjFkwxtjXL2fv/dUH479fX5q5srW+MzTG7AW6HGt/XpjunQMAEEZteM8tb18wxtifV6uOPTX37Ehe2gVOrtkXv/hge0EC/5uHfrMAALRIXXjPLe+Frg3gE03O8/tnZtaMMWs/v7d9xRhzhRAHAGihJrylH3vNp6Zdxx/Ozzy0NfgPfvqpfSBYyTe7AwAQIxWjzeeWt20f9cO2gzvvzB8/N5o/+5ztE//uYV0DAIA2RB/e0rd996gGmH353HP2em8exbUAAAgRdXhLcL9z1Nf9yleeWyHAAQCxija8ZWDakQd35rWvHrMB/rfTuj4AAGWiDG+Zu70y7fv42mvHrtEHDgCITayjzVciWkTlsizq0mhqGppJkmS+6gRpmt6jmAH0QXQ1b+nnPrRR5XW9/ifHPpLFYDBdazJwsfQnSZKTbdxhkiQLSZKkE34+aqskkiS5VnEt+3O5resB6Iaowlvmcl+L4Fae8mdfO2ZrdO9HdEt9tObxOy+0VC5V53khSZLhEV3LyMqAALAvtpr3hYjXHL8SwT30WUzhbdpojZGWgqrumEdpmo4qjgHQM7H1eUfbPHj+68/f+973P36/rEn/F//xL+a9W/+w9zpNf/N3qfwjdV5n72Wv7YvP/96XzR98neeDCXxqn68mSXI8TdPgZm3pW/d5gFxo4f9Xn4cEn4cWAD0TTXjPLW8PFQwKWykL7ycf/Y/570e/Cj7xZz73u03uq/NsICdJcssOQ6j4XRcazlTwrb2fsDXnNE0fHvK1aDIHcEBMNW8Ng8LWyuaez7/2LXPmq98yu6kxu2NjdtM091r+PDZmJzVmvPf38n5qzI4cP06Lzgyn/GMJ7+zYoDEatoXAY2DmkzRNqXkDOCCmPu+2BgAdmr/4xvO2OfZB7PfZYT610MopZWVkEFqd1p8mD5w0mQMIFlN4RzM9rALNmFMiTdRVD092JHjowLW6wf+y1KBD0GQOIFgU4S393Vo06eNEcz5N4qG175Ca9GE+KFDzBlAolpp3aO1lGhpP29mhb7sJn9po7UCVaVshe7mHXGvBY0T7rSaj5gF0m4r9vLvm2aTvJRBO5jw/qjjBiYBFVEJr61UD6IrQZA6gEcIbGh3Ggi3BC7wE9LHTZA6gkVg3JlGHRVqOlK2V/k3FBRd8V8WTQWchNej8tbzC1nNE+4OG88cBdBzh3RIWaTk6du5zkiRPKvqNX66xiEpVTbh0ZT1Rd254lU41mQ+HswNjzFljzCljzGljzCD39lbu585otPH4CO4h+3HvYXM02rhzGNfvIsp0umIJb00Dcwq/6Fmk5cjZmu43Ky467zk6vSpQs3OUBfjeRiWea5D7hPfU97Jvw3A4e9GuLCxf8F6Gw9lVY8yNtr7wh8NZe+3sPnyOtw8P9h7eHo02tgKveVUeUvaMRhvnnPcHck9nC8rmTnb8cDi76Lxvg/CtkHsquMfrTtja677t+dkjLdO2yrNroujzXl+a0bTxQivbTqKxNkedVx235tEsXjnNzHNEu/qNSIbD2VPD4extY8z1OsEtbCDctp+352lwD4PhcPamPZdvyIgsCD6U8AxxOhckT/3+cs4PjTFXPcrmsXOeRQmqRqRcLzrnrgzVKZZpW+XZKTENWNOycpmmOeld5tPH/HrVIioeG5FkU7aqrufzoND5JvPhcNZ+0d5v4YvUfv6+1N5D7uHDmgFT5OpwOHu/pcAcyAPNVafboNRotHFDAjyv6e9kJEjzHo9GG6sV9x9VmYaUZ9fEFN7Rf2l97/sfh84FRsskUG95nLWqP9un1u2zutsJqVk3uRejeZS51Ohul3yZ2nCwTb7nnB/7d0UhZeQ814fDWe/AkJApu4ctuZZ7H5dsk25J7fO0tAQ0DYjbgQ80bqjWfpgp4JbnjUkHR1qmoeXZGTENWFvxGEE8bW3tF4123PPcqGRSIHqFt7D/j/5jxbkKNyrxHNGufSOS6wVf8Lbv+tKEvs6sb/uSNIEuFpzDBvhmVX/phJDZkv7WiSFlA0hq+m5tzp73poRSbW6fbe73tsG8mh+kV9BVsOoE9ml7TIP++NNOX7cpeEBwj4+qTBuWZ2dEU/OWfu+qxTemTcPOZ33SaL63x7Qtd5WzJv3ePrVutU3m8iXv1oTsF+k536CRAVOv2IFZzlsDCfUqRQ8P9gv9FY+Qye7BHvdSwT2cbdAH7n7uLSmXG+7oeresZOCeW35Nmq7dmvvWaLTh/q55MZZpcHl2SWyLtARtr3gUVv/t43mazONSY6OSsnEKVYH6VFh7XG/SRiVd30WsqAnzUt2TyJftGwXN6BcnNbNK7e5AbWw02nij7vQzOf5cQWi2MWDsku+o7pw2m869m8yVlGlIeXZCbOFtmyWfRHAfRVhBJU4+tdWyGnFVS0pRmFZN4yoL6a6Ht9s8GTxnWwK86At5Uh+nWxt7LA8BQeTe3YePQcPgfMu3tupwP3NKWjpqkbEDRbXoMrGXaWh5dkJU4b2+NGObKC9HcCtP+dcffLKgaMvSvgmax+0xbetBycYgVQ8LRdeqGtE+6XpatN23mA+Vx7m+8QOkhuhe/+2mC75Ik7V73dCg2QqtIcrDjNvkHNJ0XjQHurBZWUGZBpdnV0S3tvn60syKrGgVhVs/+uR4zM35fVdjoxJ3JHhVk3nhQ4HH9YoGpfVhYRY3XE43aQ6VULHNrC+ORhsvSp9mWS3RDaXHVSOoa3CvGVTrbeF+GjWd5xYymXTOvNjLtLc17kysG5NciKj5fMVjLWpMV8iCLXVGmdd5r2ijkq43mZuCvsyBjDAOZmtpnjU9txba5jKrRQHXxpSvutywGtSZQldSU590T7GXadPyVC/K8F5fmnkYw8juH7z7yZWGG1bgaNQade4xbatqYxDvfm/PjUgedWAjktWSQWYfhiy04qukxjZp9HQtElhuM2/dWuJW01HPch9uYNUJPPfYAyOzMwrKtHF5dkG0W4KuL83YL+Q3p3X9d3/8iX14+LtpXR/+ZG50VUvNq7mR4EFN5hmPpvN8TbsX23/KF3LRutunZJ62DfGrgU3Okxxq0Ag3KOr277cVNG7gnffpmpC5zgdq0hM+EnuZ9j64Tey7itn+77nlbfvynaO87k9+8ukVglsd3wVbVho2meePKVtUKL9RiU8LUif27rYjf4fDWSNzg12nZPTyYm6jis1Jg6Y8FYXXQDbPOCx1H0Ba2WRFyje/2MlAQrmq/9cN7qrlUGMv097vUmY0bAkqAf5QvuCqRuw2cu/Op8d3073BaVW7VSE+ay2Ft+9e2lUrAl5IkuSKx9oAdlW1zmwBKgFzp2JTkqcGTw2Hs1sS5nda2k3sZgvniJW74trZgPAOGezV5TJVKdpm87z1pZl7spvXoY1C/+Cnn9rmzRHBrZZP7XXeY9qW16hvqVVPaqpf6MlAtQNsTVq2YXxpwrrleVmt/LY0ry/WWNay7Wb42Lk15vOTykrec8uoarBX38pUJRXhbWQO+PrSjP3i/dM2l1H9+b3tkz+7u22/QO8yqlwvmSNdudqax7S/OrXgScF7wnPNgs6Fd0ZC3K6A9aIs7uEb5Fdl+8jrHn26vdpRKmC51LrLoZq+7tKlTfTN5i4ZyLY2t7x9QfoTay+e8st//7/ju2m6sJuGfR7Rqto4xFQ0Y9fdS3utoqXGZzndzjSZTyJ9rKuyAUnp/syOi1KzPDchcDYLzhG0gYgiq87qZ+dLVqQzgU3mfSxTddSFd0YWc7H94SdlRO+87LX91Bfmo42dk7upObk7Tm1/9nB3vHccgd1Nax7hPUmtWrAd5Z4kyZMGYzHcjU+8zC1vH5da/ULu//cn8iBwTbqZoiVBbH/elpr1eQmLohrkQJrTywL8QE2+pX7zmN1wwrtwp7G6O4jl9LFM1VEb3hmZE77i9lXOLW/Pf+fMM3cZNd4fdqBZkiSPGnR/hKxyVlX7rvpsLdLidK3ggeEFGbD3+tzytt3n/IIsNxw1mWJmw+hGbhUwd1vQbMEXr9qfHRXd5bCxIW23SHX6pi8WTNVzm8yDR/Z3vUw1UtPnXZetfXz2eV33jFaE9iHXbTLPNOmzrlVDluB+x6Om/7rG5ngb5LJeddn2kb7zjzu7h3POgYFrBce4f+e7Kllfy1SVzoY3eis0TIM+57lATBHfKWl7pHuozhr7L88tb6vcCW/Cgi9F/eNFQdOH0dITdxoL2EEsr69lqgrhjU6ROdMhYdpkY5CQ4K/7mSsBfeuXpX9cHd8m2pKlNr1WHvNlm4zbPF8bSpZLded/55Uuh+rqa5lqQ3iji+oGY2iTeSakibruPfrMGXe94Lk8ayO2xidzs+3ULju47H8P+5oON8Sa7ru9T+ZJ38xNXYupBnogYE35DmJ1+6v7WqZqEN7oorrB2HSu9VE8LISOaB8Gfq6OszKg7KK8HjTdjKRmraxoU5TFlmp21yW4svC6f8jLhHqzq9k5v3e201jd5VCL9LJMNSG80UV1a8KNBnfJdK9bNT7StYVZioLhasMv+qLwLxwpLc287jznQdMlPW2tsKD5ua0lXNtSNHDtQJN53Wv1vExVILzROTXD9IkMOmuqzjk6tTCLTD9yv3yz+dm1RylLM+piwVuTvuBvFIS77Ve9Wfchwh4vIVP0AFE0kG6aisI7dJS5q69lqgLhja7yDdO2asG+5wl9WKha+rXMUdXyi76AT0uTaFEQF5Jm39sFI6UnDriS994oeOu83INXM74cd78kZC55LC16pEqWS83zWQ61UF/LVAv1i7QAJXxrt62Em63tJ0lyy2Nns9Dr+Sz96nq0vjTTZCCeN/sFPBzOXirYDnQgTeiLUpPblL7UTRsOUsseSNCfL5mSVDZ17CkT7iHbU3xRau9bznSobCWyoulVmRvSxxwjd7nUp+67yf32uEyjR3ijk2S1tQcV64u31WSe8dmWNKjJfH1p5pos0uKzXnrGZy/x1lTs5z1wA0aOrWKD+1yNaU7ZPVwtCI1TgSOmL0UeMu5yqXmhTeb7elqm0aPZHF1WFcxtNyn7nK/JNS/UmMP+5jTWOJcv5HMVTbm+bI3ulbrNqrl7aNocuynXjzpkZMxB0e+6GbocasE1elWmGlDzRpetVcxzbrIwywHSdP5d2Xu+yChkI5KMbQKXldbWJmyuY9d2vyy7702F9MO+JH2dFwNW59ps2qQqgf9K4D00vv4UrBb8jq3efw/LNGpJmqad/eV+fX8n3U2N2fsZp/Jv+XNa8Of917nj949p5/id1Jixc/yOHD/OHb+Tu5/sePvZ9749SCIoWkzZ3PL2UBZuOSk/tpY9mmZol5ER52elibXsC39TauvBm2d43MN5uYdTuXnG2bW25Gf1MK7fRZTpdBHehDcAQBn6vAEAUIbwBgBAGcIbAABlCG8AAJQhvAEAUIbwBgBAGcIbAABlCG8AAJTp/fKoD371M7P2w38yxi6GYvb+Zey6NXbxmuz1WI4dp/Keyb0vf7//+ez9/fPI5yvO/9nf+ZL54h/95XQLAwCgQu/D+z//a9O8+94/T/0+bJAT3gAAH70P71fPfENqv+l+zXostemx1KLH49+8n722x+xmtebsGFneNH/8Xk17LOeS43dlNdrd/LXGxrz4heG0iwIAoETvw/u3P3fCvPHnfx3N2uYAAFRhwBoAAMoQ3gAAKEN4AwCgDOENAIAyhDcAAMoQ3gAAKEN4AwCgTNfneb8fwT0AANCqxK6xDQAA9KDZHAAAZQhvAACUIbwBAFCG8AYAQBnCGwAAZQhvAACUIbwBAFCG8AYAQBnCGwAAZQhvAACUIbwBAFCG8AYAQBnCGwAAZQhvAACUIbwBAFCG8AYAQBnCGwAAZQhvAACUIbwBAFCG8AYAQBnCGwAAZQhvAACUIbwBAFCG8AYAQBnCGwAAZQhvAACUIbwBAFCG8AYAQBnCGwAATYwx/w9ChgvkS39nAwAAAABJRU5ErkJggg==;" vertex="1" parent="1">
                    <mxGeometry x="194" y="161.2" width="132.65" height="41" as="geometry"/>
                </mxCell>
                <mxCell id="16" value="&lt;font color=&quot;#000000&quot; style=&quot;font-size: 16px;&quot;&gt;Récupère data et &lt;br&gt;lève les alertes&lt;/font&gt;" style="text;strokeColor=none;fillColor=none;html=1;fontSize=9;fontStyle=1;verticalAlign=middle;align=center;" vertex="1" parent="1">
                    <mxGeometry x="213.66" y="183" width="108.67" height="110.8" as="geometry"/>
                </mxCell>
                <mxCell id="17" value="Data..." style="text;strokeColor=none;fillColor=none;html=1;fontSize=14;fontStyle=1;verticalAlign=middle;align=center;fontColor=#000000;rotation=45;" vertex="1" parent="1">
                    <mxGeometry x="119" y="111" width="100" height="40" as="geometry"/>
                </mxCell>
                <mxCell id="19" value="" style="shape=image;verticalLabelPosition=bottom;labelBackgroundColor=default;verticalAlign=top;aspect=fixed;imageAspect=0;image=data:image/png,iVBORw0KGgoAAAANSUhEUgAAAe8AAACZCAYAAAAGhbKlAAAACXBIWXMAAAsSAAALEgHS3X78AAAWIElEQVR4nO3df2xd513H8edkJevaNYmFROkfLFkqWv6BXObY/MXqSYlgUFbDcApjUszUJttgaqqB7AWJpgiMszHiwiZIVqkpjAlqEI7W/THFWh0xCSk/yjWIf4oW7P2xX0JyXNaJ+Tr3oMf+nvjk+DnnPOfH9T3POe+XZMW174/nHN+ez3l+e77vKwAA4I5d/K0AAHAL4Q0AgGMIbwAAHEN4AwDgGMIbAADHEN4AADiG8AYAwDGENwAAjiG8AQBwDOENAIBjCG8AABxDeAMA4BjCGwAAxxDeAAA4hvAGAMAxhDcAAI4hvAEAcAzhDQCAYwhvAAAcQ3gDAOAYwhsAAMcQ3gAAOIbwBgDAMYQ3AACOIbwBAHAM4Q0AgGMIbwAAHEN4AwDgGMIbAADHEN4AADiG8AYAwDGENwAAjiG8AQBwDOENAIBjCG8AABxDeAMA4BjCGwAAxxDeAAA4hvAGAMAx9/AHizc8tXZAKaW/RuRBwb/qtx/1fvz9P+F9Z73rq05XLa131VKn6y/p739uZPdCxQ4FAFAjhHeIhLUO6FH5d2/cY3+wvvHPo/Kfj4V/9/Wv/VCtd9XielctdLr+3Pt/8V7CHABQGs/3/cafzeGptXGl1Hg0hJM8+bCnPvhuT0nNW4e16sj3+t/1u3+22umqi+tdf+bJD7xjqS8HCQCojcaG9/DU2j6l1Cn5iq1hx8kY3vKYje+vrHf9M+O/dh+1cQBALo1rNi8a2iXQtfvXvvCPP7jS6apTHz92X7sPZQAAOKxRo82Hp9Z0P7YOy+f6FNxhOsT/7S/+/q2Zz37prX19LgsAwCGNCG9d2x6eWpvRNV6l1P4KFCnsGX1DMf3Ft0bsnwIAaLLah/fw1FpLKbUgIVnYA/cqNbh/l9pzv1dmMfUNxWt//DffP1PmiwIA6qnWA9akmXwuTxO5Dun3vGuXGtzvqUce3KUeedBT73z71u//9T+76qG3unkGrN35N+b7l9e7/qk/+cgDt0o+HQCAmqhteMv0r5eyPu/xn9mlHntk8yvO69/01fe+01U/pfxehLf+d7FzW418+mkCHACwXS3DO2tw61r2bwy9Tf3m8Nvuql3/1/d8dWO5q24s++rbq75647tb56rAVDGb8Fad22qx46uRcycIcADA3Wo3VSxrcOvAfvrnt0Jbh/Sr/97d+NLf99Eh6atv9bMQAIDqqVV4y+C0GZvHPrTXU382do/6yR/bHHimg/oL/3J7I7Qr5NDv/tWbFz/3sT3jVSoUAKC/ajPaXBZfWbAZnKb7tf/uqR/ZCO7v/1Cpc/O31ROf71QtuAPHP/r5N09VoygAgCqoU83balS5biLXX0r6tH9vdr3fzeM2zj31l28uvPiJPY1djc3zvNR58L7vs+QsgEaoRc17eGrtlM2mIs/9yj13gvsr/9FVv/Vix4XgDswdf2G1ySuxBYvsxH7ZBLwNz/Nanuf5KV+l/C08zztl8V4Xy3gvAPXhfHjLNp6pi5vo4P7ln9483D96dV09/+X1nShemfbLeuxNZVOrHi3p3NiMMShrRTyb15kr6b0A1EQdat4zac3luo87HNwV7du28dyHzq0eqH4xe8Km9llWeNsEauH3ktr7EykPW/V9n/AGcBen+7xlBbXEi59eGe0PH988zAqOJs/jYom1Pmf4vt/2PG85ZW36/brJWz8273F5nndApumlKeNGweY1nOnHb7WGBpVS0+GftdvXjvavRNXRag0dUUoNhgq00m5fu9D084L8XK95JzaX68VXPvPrm8F95Y3uRnjXwGNjn73V1E1MbIKs6LmxDeW9JfSx163JfEApdSTyhU3BjU3wNcZ5QRHOhrfM6U4cpKYHp+n53HpQmm4ur5Gmzvu2CbKi5yZLjbpo7dvm+TSZA9jG5Zp34uAtHdp6yVO10c99W/3v/+1UsXbE8V/9zK3G9X1L3+9qysMO5R0JLs9LnbUQkju8pdaeNrVx0fd9lscFsI2T4S0LshxPeoweXa6kuVyvT15DTa1993LUedbnbfSx9/C9mCIGwMjVAWuJFz5d637PuzaXPf3zy7Xo5zYZt5kiV0NzFiO0R3MGX57Q1zXoPAPkatdk3m5fm9eNChUoClB7rjabJ174Trx3ayEWhxZhyWr/42dvNXHTEptASwv3OHkGoGVuAZHaetKoeW3Z9/2lHOUB0ACuhnfixTnYi7sG08LSNHHKmO4DXkx7nOd5mWrR8vjU5XUNDsn0sixYmAVAIc6Ft8ztjqWDW2/vqWvcNe3rDitrURLX9GLBliLnMutNlE1tnfAGEMvFmnfihXLk0c1D0gPVGqCpe33bBFvWQC3SimEd/JaLwKyyyQqAJC4OWEsMrGCg2pU3atvXHbb3F/505cBXPzXQqL5R3Rdc5mprFn3Qupn+QEKz+hN6mpnltC6azHNqtYaCRWAOyivo72/Klzbfbl+70eMyBCulHQyVQ9Pvu6KUmm23r91MeIkyyxI+H9HyBOflhgwkrJUmH3vAxfCO7V/UK6rpkeZaA5rMA/p8NHFgkw64Z1IeM265mUtaM/ZFuWlMmp44Yhm6tV2YJe/yqK3W0OWk50hgnrBZlazVGtIX7bNlLj0qQaHff0JWkTMJVpObbrWGdJBf6NXyp1nOhzx+46ZCzkvijYUc60RkKVclxzNbqOBbZZ+I/FiXabLdvrZi+fyeHHvM86fD58Lw2Qw+G0fU9hUF53u5PLCL4R3b5PjIg5tN5nqf7gYZcWn96xJdtAhv26bwtMfNyQ1SUniPljgS3tW/54DhAmbD+JxWa0jXps5nfM2N57RaQ/qCerJoTbzVGhqTMsSFtsmglGFMylBKTVyC4nyOpVWDgDnRag3pkDwb90AdoK3W0Kw8PnzMg/qmpMixSPlfibzuik1w78SxxxhM+HxOpNzQ9VQt9vMOPCSNmt+61ajwbiRpDrdZbS1xJLhFH7Re5WzJYnW31Bq15Qj4S6yqdqcWfz3nzYCSi+5leZ28ZThhCJssdNmvFylDqCz6Nb5RwproumXguoShkdzwnIz8biN4k55nwXQuJ9NusHby2G3o50tr0XS/glu5Ft6ynnmsoMn8je82KrxzLQVaE2U0U6f9PjyyPalGbLNRCWuZW5CL9eWYC6Puw5wMfZ2V/maTgbwBLsF9PubXN+V99fsfla+gLNGa6YAcS5GbiKTzod/vQqQsRyV8TeVRoRubpACfledHnzcd85S0Y5g23Iildi3049gtXC5wU1ka15rNmxxUcZo64lxJ0CUukytN4jMJv08L1LnI90nN3qMpAV+rLUB7yNS0elYu9sbmVWlin5Am0rCgufWwbXGlX9UU3DelGdw0CCr42WTo+cEgqoG8tcaE8LLt25+UG5FoLXFQznNsn2y7fW3SsJXpCWk+t+7Pl+6DaD+3fo1o7T76vL4de0KZpg03YvPSrz4b/nzKZ7JnatVsrud2v/5Nv86rquFuNkH3RNxGJRYbkURXOUurFceGs4xot9mIhFXVto/iPqz7KpP6RXVfrITBMQn7sEHpn0wV6luNuiDlSB29LI85nNAikIWpv31WymIVoPK4hw3lOWJxXo4azue0bWtGaNxC2Ir8ndL0+9hNos/Rzf5H9ftEP5+9nnVQq/DWK6p99IudJqyshq3V1i5ZnIu4UM1S67Z5v6SNSliYJTt98Tua5SIozb2Thl/ZXqhPRG4elIwaPmkzGjpUjhUJvtwBLrXGbbW8dvvasSxliZQnei4nUprPTUE7IAPybJqeTf3cqYP4qnDsFk7mGABXmlqFd0M1vaZWZMGWLP3dtu8X917M784uU2AGpLYVndY0IIEQKzRNKsy2lmgqR+7nitLKEiqPaSBa4nmRloToDdFgwpiADTFNzJOWU84qcewJJns1FdCWU+F99fRu+gO3a3p4F9kiNClQl2MWeEkL2G01bMtV1eLer6nmCy6wYap9pw0yGjPUEhOb69NIDTPzRV5uNKItAIXKoraCOHpeUwNMapjR0B2La3qO6eeet6mpVu3YDW72s8YdoOYNp0kfcdpGJXuj07QsNiIxhrRF07lpehqjzLMrVKuR0NzWz5nyNNPvy6hd5bnQR8uyUlJZlCGED1r2YZ80ND1v6/+W/47Wym9mqDlX8djD+lrjDrgY3ssVKEOVUFuz26gkWsvO02QeSKvtZ30vxSjzu5WxmldM03nSCODoiPDZorU9FX8jkSZalvkyyiJM5zZ16lOoGyBajjtTr0ID/qItGFn6qit37BavseNcDO+mNxNHNX5Bj5xN53mazAPWo84tRrQr2YiEmveWstajNgWmMbxlSpTN8/OyPqaYmmBpZZEgjJbHqvYpC6pEuySCldOUTMsy9XNblb/Kxy5u7tTa9WlcDG9qKCFf/dRA48+HBG1ai8ydkeAWG5EkBqlFU314ehpN5tmVdXE0XfTjLtSmUC8zvLMcU08DTETLYz0nWQZqRZuOj8iqY9E+5AsZ+4crfewlfjYLc3Ftc5qJt6T19TaJzUYlI/L5SZu2ZROmuln9XMp7zVmOMm/8DVhEKRdIWafb9uGmKUP9Cm9TWQZiWgfKkqnfV0+dk1py+HnR8plq6WmqfuyV2aXMxfDmQreFc7FlwXKXsZmUQLXdS3suJbyDjUqoeTuqxH5WVcINySsWj9lpx2T9eVPgruSd6ufIsfedc83mV0/vvkWN8w7CW1hsHKJkJPhIyrQtqyC1aDoftRjRrl1hI5JKKLx5SJKM/aQ9LUtZ5JjiljjNu6ObE8deBa5OFbMZXVx3q69O7KPGdjeb85G0zrnKWAtO+hzq0D5j8Rr8Dauhb7tDGVSpLGni+ovzruvt0rH3lYvN5sqiybIJuOhvt2CxUUlSrTvrqO+0z2HawiyKv2NlzPdyp6iMm1TcMJQl8yYavSZ93nG7jE3LBiZZ+4idOPYqcDK8r57evTQ8tXbFYgpOndH6sJ0OwpcKPt+abjr3PG85ZeR6klwbkQxPre2T/vvR0P8Dq3LzMnf19G4+GyXQc5ZL7PfOEt7b3rPganOlk/ncl1NeV+//fThjl0Hlj70qXF5hrckXqMV//v199HdHSN/xlQIvkacWXKTmnPlvODy1NiJrHZyL3Lzule1KXxqeWluQgEcxZfa/FmoO7vFo6zxMG45Ep4QNlDHYrILHXgnOhrfULpq62lpav22T5Q3TvAulFLmJzPRcCe7XLAbB6VAnwLPJMic8jyyvZb24TD/IeubRQNXzuSdNG5jIBiW1OPYqcX1tc5sBQXWzPPvJfTSLxssb3rmeZ7lAjEmmjUgkiLOU8RA3efZimmbLDO8stcde30jkJhuORMP4huylHreByUTajm7h1zL8jBHoBk6Hd0Nr36cqUIbKstyoxKRIN0Se4M/6fuMWNe6o48NTa9FNUhDPtGtW4dHPMljNOoBilvAspSyhMh3J+npyHNENR0xbdVptYGJS1WOvojrsKpa2WladXPnSs3sZnZwuTxAXOa95WkKyvl/ez7nNIjHYZKp9593vOSy60YaNbZuqlFSWIIR1X/Q3Wq2h8zahKmFn6uc+GR2QFrOP+caGJZahWaljryrnw1v2+E7aorFOmnSjUkTWML1UZKGUPE3nOfrXbaadmVDztjdrGO08UaSWJmFh3PM6RellCQl2/QpC8brFoDDThiNn43Z/i9nAxLRVqEnVjr2S6rKf97jF6lque/blZ/ayo5qFHGFaRmtGltfYyZvN1g6+l9OkxmgaMW0TOHFM22OmSihLodHburZp6H+fT5qOJf3V0ZrvvAxQixXT/z0mA96SnleZY6+yWoS3LJla5+bBSy9+Yg+Dj7LJ0nReRnj3+v3y3pwypTCbC4Za35hc+DOJCYssLhj6jnV/7Ss5+qsHpDym5ufYEI5ZiMXULB4nrv877bz0/dirri4176D5/NkKFKVsizSX52IbkIWazAOWa6sHdmKAW4DWmgyk1mdar/uE3vLSZqU0HXit1tD1SFhkXuwlpu9YSR/6ddsR3PK4aHkCsWuQJ/RzH7NdvCZ0DNHHJ4Zwv4/dBa4uj2p09fTumeGptZbFEpmu0GEw/te/s4eNKzLSYep5ns2TyhwAOGfx2VvMebMwJ4uwZLHK8qvZ6X7cVmvorKGv+ogMdJqVKU3RC3+wRaZpgNpRCZFMdLi0WkMnDU33B2UA2IQMtLsZKc+gPGYsodn+guzNHee8YY71ZNZmZjmGycgxBDcGsUuf9vnYK682Ne/A1dO7xztvfvvL1ShNIfrCO/K5j+1h//L8bPqWyw7vNLnm6Mu0yKyrx52RLiVkJP25cRf3YK7z5cjXdExwF6rhScicjKm9H5RaZbQ80/LzuPA6GczNNpFgjB7LrPRj5z2G6Pk8kraASz+O3RW1C2/P81rtswfe+z+v/20FSpPbRnCfO/EAwV1MWpiWuh2nZdN5kZuF0Qxz2F/WLVEF3qvx5AIfFxw2dI3wcBk1PHmNozGLmGRxI61M0h8dDdWk7T9tTRrKPyELv1Ti2F1Sq/DWwS19g3v/+5+eUo4G+EZwf/ppgrsEc1JbjfvqxUp1MwnvdynPRiQBqUXrJVJfTniY/vw8q1ugch8B7pAL/eGEWrjJigTV4TL7VPVrtdvXDkuIZn3dG1LjTCxTaB50lHU/d0L5V2JuhlLnW+/EsbvG832/HgcSCu7Qjxd/9g++9Q/33PejU2W/35MPe+qD7/bUetdXna5S612lOvK9/nd9289U6LHbfybfL3a6auT58XfS1IlEsnLaqEwFOyCf/SXZVYzPTw/IAKuxUJ+qkn7woA846AefL3E3slgStGNSloOh+cvBKO2b8jWbcWevymvysQdqEd5xwa1rKbpZVAaxzRXYunGbHoT3C5Mfvp+lTwEAqZxvNk8LbrXZ3NiWGsoL/StpLL2YyPsIbgCALafD2ya4A7op8erp3Tog35dz44qy6b7J5/VNxSc/dD8LaQAArDk7zztLcIfJYi6t4am1cdlStLSm9Az0gKMzHz92HwtoAAAyc7LPO29wmwxPrY3KCmaZFsDI0ee9vN71L3a6aubDo+9gQBEAIDfnwrvM4A4Ljd4dsQlyy/Be7nT9uU5XzX3gl+6laRwAUAqnwrtXwW0yPLU2IkF+QL5a4fc1hPdip+vf6nTVQqfrL6131cLIkbfTLA4AKJ0z4b2TwQ0AQJU5Mdqc4AYAYEvlw5vgBgDgbpUOb4IbAIDtKhveBDcAAGaVDG+CGwCAeJULb4IbAIBklQpvghsAgHSVCW+CGwAAO5UIb4IbAAB7fQ9vghsAgGz6ujyq53n7lFJLBDcAAPb6WvOWgD4V+hHBDQBAikpsTOJ53riEOMENAEAK5/bzBgCg6ZzYVQwAAGwhvAEAcAzhDQCAYwhvAAAcQ3gDAOAYwhsAAMcQ3gAAOIbwBgDAMYQ3AACOIbwBAHAM4Q0AgGMIbwAAHEN4AwDgGMIbAADHEN4AADiG8AYAwDGENwAAjiG8AQBwDOENAIBjCG8AABxDeAMA4BjCGwAAxxDeAAA4hvAGAMAxhDcAAI4hvAEAcAzhDQCAYwhvAAAcQ3gDAOASpdT/Aypn7MWF5QlFAAAAAElFTkSuQmCC;" vertex="1" parent="1">
                    <mxGeometry x="485.59" y="156.2" width="148.82" height="46" as="geometry"/>
                </mxCell>
                <mxCell id="20" value="transmet données" style="text;strokeColor=none;fillColor=none;html=1;fontSize=13;fontStyle=1;verticalAlign=middle;align=center;fontColor=#000000;rotation=0;" vertex="1" parent="1">
                    <mxGeometry x="362" y="195" width="100" height="40" as="geometry"/>
                </mxCell>
                <mxCell id="21" value="&lt;font color=&quot;#000000&quot;&gt;&lt;span style=&quot;font-size: 16px;&quot;&gt;Trie les données &lt;br&gt;reçues&lt;/span&gt;&lt;/font&gt;" style="text;strokeColor=none;fillColor=none;html=1;fontSize=9;fontStyle=1;verticalAlign=middle;align=center;" vertex="1" parent="1">
                    <mxGeometry x="498.00000000000006" y="190.40000000000003" width="130.75" height="113.6" as="geometry"/>
                </mxCell>
                <mxCell id="23" value="Récupère données" style="text;strokeColor=none;fillColor=none;html=1;fontSize=13;fontStyle=1;verticalAlign=middle;align=center;fontColor=#000000;rotation=0;" vertex="1" parent="1">
                    <mxGeometry x="670" y="200" width="100" height="40" as="geometry"/>
                </mxCell>
                <mxCell id="24" value="" style="shape=image;verticalLabelPosition=bottom;labelBackgroundColor=default;verticalAlign=top;aspect=fixed;imageAspect=0;image=data:image/png,iVBORw0KGgoAAAANSUhEUgAAAlMAAACZCAYAAAALrb8TAAAACXBIWXMAAAsSAAALEgHS3X78AAAZmUlEQVR4nO3dX4wd1X3A8d8163UggL0FQqAk2GtImrTATZZ1W4qC1dqp+hKsVnZbNVWpVHlfWlGpD7b8kuQF2VUrgtQX70tpo6otq7a2qoQUrxRD1VawXrigKmkavODEDX+CMI7BwP65U531b+zZ2flzzpyZuXPv/X4ki5u7M3fOnXtyzm/O31YQBAIAAIBiNnDfAAAAiiOYAgAA8EAwBQAA4IFgCgAAwAPBFAAAgAeCKQAAAA8EUwAAAB4IpgAAADwQTAEAAHggmAIAAPBAMAUAAOCBYAoAAMADwRQAAIAHgikAAAAPBFMAAAAeCKYAAAA8EEwBAAB4IJgCAADwQDAFAADggWAKAADAA8EUAACAB4IpAAAADwRTAAAAHgimAAAAPBBMAQAAeCCYAgAA8EAwBQAA4IFgCgAAwAPBFAAAgAeCKQAAAA8EUwAAAB4IpgAAADwQTAEAAHggmAIAAPBAMAUAAOCBYAoAAMADwRQAAIAHgikAAAAPBFMAAAAeCKYAAAA8EEwBAAB4IJgCAADwQDAFAADggWAKAADAA8EUAACAh5F+v3lnTy1vFZGHuoHISiDSDQK58lr0dSDBuvfSj+2uO+7SsfHzg8h7WcdF37+cjq5IV4LI6/D9IPL60vvmv6vpuvw6fD+IvF77nbqBnHzq0NjJBvxEAAAMtL4PpkTEBFNfaUA6mohgCgCAitHNBwAA4IFgCgAAwAPBFAAAgAeCKQAAAA8EUwAAAB4IpgAAADwMwtIIGAKtVqstIltyvmknCIJ3yA8AgDoRTKFffFVEHsxJ6x+KyOO+36fVapm1y17JOWxbEASvlnCtPSLyLzmHHQ+CYI/vtQAA1aCbD/3imEU6ywo4dtZ4LZvPsfnuAIAeIZjqkZu2bJDPf2pU7vuFTXLnbSPykdHWUN4HBzarudsEQTZsApw6gylWsgeABqObr2bbbh2R++/ZJNddsz54emlhSf7t1AdycTEY8LvgznSptVqtF0XknoyTN5tusyAICrfktFqtLRbdicYD5lifMVo6DmxzzmEvltGd2O/a7cldIjIR+RrnOp256WG/L2na7ckD0T91OnNHmpIWEZnvdOZme5Qc9KmmlwEEUzX6lbs3yd13bEy94N3jG+XTnxiRx5+6KP/39soA3gFvZjzUozkfstOzW8yldWuP5xithyyOoYvvElOIHo78b1MZE0ylOxz7S8+CqYS0HNTfD3DR6DKAbr6abL1lJDOQCm3a2JI9931kcL54uWy6u3y731zOr+NaBFMA0HAEUzW57+5N1he6eewq+dz2/MBr2ARB0BGRMzlf+3btPivKJUAqPEZLZwzennPYGf3OAIAGG6puvn998m/lx6+fkSAQ6a5WziJB7L9dCRLfN//trns/iJyX9nkin/m5bXLtnj9ySusdW16Xo9+avvJ5+pl3/frByu5PnzAtNQ/nJNUERM5BSKvV2mkxhinKZ4wWrVIAMCCGK5j69jfk+c4ztV/384e+6nzOXZ/dJvPfig81IJjSrj6bYMr9phfrtttTMOhhFh8ADAi6+dBXtBXofE6a79FuNFdFginnrj6dMfhAzmHnfWYlAgDqM1QtU5++4+7VvrJw4YFA/8dqV1r4XhD+7cr/vnK8xM6X9edHPjM85v1F9/FP7777ntxy5/2RNAXCggmXmSDjD3KO2eky007HWeWNYUqyOkbLcWwTXXwAMECGKpj6sz/5y9VxT+bfyup/g8jr8P3g8uu1fwtix10aM7VicdxHr3ZfkPPlN0blSw9/c3XMVber6dLXWO3+ygumXJct8Fnw0yxx8KcOx9PFBwADhG6+Gly4GMhrb7mtG/XC6aU+/ba1sGm1eVC702zZrPmUxjUQszmelikA6BMs2lmTk/Mfym/96tUyujG/lerZ/1mUV95YHpBvXj6z6nir1TpusVK51QKeOr4qa2X1cDmGtG7A1TFaNiuV68bGeTMGn/ZZWb3JIqsYj+u/0LxZ0VhEZjqduYWqv0K7PTkmIrs0DSY9Y5E/n9P0mHTMdjpz52q89kLkX+nXzkmL6OswDaJpmK8yDZG0TOj1x2IrXS9EfotK02L521S+gnsv82fVmlIGlI1gqiYXLnbl+DPvy4NfyA6oXlxYkm+f+mDAvn0lTloEU7Yz7fJaisLPyJpFaK719RKuJYPWKqUVw34RORCrFKJ26evD7fakKVSnq9gqQgtyk5a9OYde/nu7PTmrBbxXetrtyfC6uywOD8+Z0XtRauXtcB/MsaZiO1LV1h16Xw7EKtastEzrPSktiHC5H3q8aDpmyvxt6s6f7fbk4Wjg2unM7Y79Pfz/7q6EfDsbPz7jOo0pA6pCMFWjt8535RtPXpS77tgo47eOyI1brvSy/uDssjz7/UV55TVapCwds9haxnZ2Xt5x4dirMoKpoRp83m5PmkL/aEYBmsQU7kf13KkynlLb7clxTYd1IBOxWpEUTY/ntc0192qF6X0vCqZlXH+P/ZqGUlqHtCXqaKwVyiYtJgDY325P7vNNi1byR22DqJj9mg5T4R/0Ce56mD8n0q6peypmBT9WmlIGVI0xUzX7cCmQZ7+7KH/31EV59IkL8hf/eEH+/O8vyD/9+/ty5g3247OlXWov5hy+WRfiTGWxsbFZoqBjsfr6A3ljtCxnDA7MxsZa+T7hURibQv6UVro+6TDnnypYUXmlp4Jr7y/6ASWkxZx/wvf3iKTlhGMgFTVe0v04XTCQitrvk097mT9T0jPWbk+e0KDVN5BqRBlQB1qm0M9O5ox1Em0JypoZZ9vFJxarr+fNIByaWXxaiB5N+bN5ypyJjP2QyLiQvbHunjGtdAt1pegT/4mMwnw28tnzkco9On4nakwDinvznpZzrj2j14u3rIRjSfamXNs8rZvd8mdyv/zatExkpGU2dn/D8TpJFVj4/Xd7tApNpLR4zGs6bPJFyNwPce0OyrkfknBPJDKWKynoGS9yX3qZPzP4BLmXNaUMqAvBVMxVIy3ZfP0GufqjrdX1nS68G8i5c11ZXGKVpwZ63HI19KxlC/ICnGgwlXe9MoIpl+UcGknHfSQVogvaZJ9UKIbvHYycHxaoYx6tB2lPxQdTxt2sSZtWCPEn9LBrKG+8SFLXRl53XXj9qYxuFhNAzDtWlvH7YL73kayxR1rRH9CWl6jw+9/rcP2o+G85r91kefkibWxVeD+sgpiMQCr3nkj2+J8wkNnu0OXXy/y5TnwMVeSaMzou63J6NH+kfU6TyoBatIKgv4OEs6eWTcvCd/LWjgrWvbf+2JtvG5Gbbr1Krrpq7TWWl0XOnl2WlxeWCq0zFX3/cjq6l/YBvPI6fD+IvJbEdaZWgvD9IPJ67XfqBvK1pw6NFdlSpa+0Wq1XLbrOtqV1nbVarXcyZteZLr4tPsdHrmNmDL6Sk06zsXGRldsbQyuaUwkVntO4Ev2crCfk3MGvKU/G5vqurQdp3+netM+JdN1Emcpon+115UqF9UTCfTAV7VTGeVkFu0nzPttgLGPMi/k9j1icn5WWzO+R8Flp+cIEU1bBXbs9eSrpfJd7Itm/jdXA7F7mz8i5J3K6F61+Y8v01F4G1IkxU6utUSKfuntUPv6J9YGUMTIisnXriPzijk0yMuK+ACcqZdMtltgiZLGxcdJA8KzB4Zt16QPrNMQMQhff/oRC1BR6Uy4DdPXY3QndYC4OJBzr3D2laUmq8LPG6yRVUNZBQ+TapnLfp5XsmmtrZeNqQe+BddCgXYpJm4Im3V8Xsy6BlGTniwmb8VN6TFIg5XRP5MpvszuyjEQoHAyep5f508aUayAVuW5TyoDaEEyJyMduG1nt1stz3bUb5I5xekYbxmbmW9qCnC5dfFnv2XzmwC+JoJV7vII4p8GAMy1MC52rLUPrnoyLjvPRbon4uVlP9EmVSaHZXlppJ1VqRQYsO1VokTRMa1dP1JjHAHDffJEUPNgEd0nHFLonPmlpQP7Mc7DgUguNKQPqNvTB1MZNLbnx4wnNUSk++YkRuf66ob9tjeGw8XFS91tWMJW40bDF9dYFTRYzBqOf3c+SBk0f8ZkyroFEkbVmwvEv0QqmyFN2VDyYyFoXKXfNJI9rnys4GHfWc02kpNapohW2b76YT8gX41ktQhr4xX+Xg77LK+g9jadlImcGWq/zZ5aFgi1S0rAyoFZDHxVsuck+kAp9rMA5qJRzV5/FMgVZgU3W327Xz46yaZU6bnFM0yVVrGUUgs4FuymAO525gzqOZntJa9Wsq3QzutqSuqEKTzOPdCn9TKczZ/7tdp3R5/tbaBrKav2oKl9kpSfpb673ME3S90kN7BqQP7P4/DaNKQPqNlR9Vvsf3i3Pd55Z897xJ0/KTT/7gNPnvPnj/5CHftNnX9zivvzoQO4y4uuY5Wro0ZlyLksiJP0ta6Pl+MbHw7JQZ7zymCljlWpTyeiKyIWma5f4ZJvUgjGR0koUrxjHdNaV87ipkO9K2wWCryQzsd/BdPWNOwYCVeaLrGAqKX+Wshikad3S1dmjrUF7U1rz4uf2In9m8cknjSwD6jD0LVMYCEW2jMnb2Di1tatAV9/AB1M6lTmuzIGjPV9jxrFSmEkZNH7aZ6FJD2Xdv6Tf1LU7qcp8MZ40Zb+G/ClJ3Ww+rZGuStpeZ6FogDkMZUCWoR9N/cMzr8p997u1TJlz0By68fGLOQt4rs60M4GQxcbGxy02Gs5qnbq88bHFjEHRVc/7vckxqUItsyCtZTsJrYjDf2ORhQTjm81mMhVbuz15MGHqe7g1y4HI2j11zFYq6/6V0fpR5vdNC+7i37fq/Ckp97hIy1CqsvJnBp98MhBlQFFDFUxNP3Zi3TpT19/oPv7p5z/3u/L4P+/r2TpTSPS45V59xzy7+EInc7r6wr36hmKhzpSCvLEFqbYYTMR2r/fdzmMNMxtKN8RNWrwwXBDzgFnRPLIi+mxF+5CV1Z11Tr9Tz9OiklpjkgKYqvOnlBlM1ZE/U/gEfn1VBpRt6FumLry9Iiu3jySuL5VkeTmQN98komkgm42PwyCqyJIIScf8dcbfXYKpgdnYOKrMXf3LKEj1qX5/xlYppdOAajZnE9ux6JpAOvZmpoTZd41UcrBYuLIuOX+Kbx7tRf6sWtPKgCoN/ZiplRWRs6eXrI//7+8uydIyW8s0ja5wnrURsehMu505g9VtuvhEj8magfeA5cbGZwZkY+NKC3+fCthMUdeVnk9ra1CRtC4UfWrXmVu7ddbWdEprSlTYanVCx1gdyNq6Y5g5VNaVByceY416mj9L1NgyoA5D3zJl/PTtrvzo5WW5dVt6C5VpkfrfHyzJmz9ZqTt5sJe3EbFoa1EWl1aivFmENt13g9IqVdtAWxc6Numw5SmzWiktaMCzoNuURPcjK/wkpZXBlO67t1dbIJLW5Yka1/QfbrcnnbbjwBrkz+o18h7XhWBKvf2TFfnp+a7ceMtVsuWGDbJp06UV0T/8IJC33urKD3+0JO+9T4tUw9lsfJw18FwKBFNZXX1513K9XpPNVjmmo0jLTE5FFT7JW49TKnNmli5TMKOB1YTeu10599B0Ae1ttyedtxxBtflTCuTRJufPghpXBtSJYCpi8cNAfvTKkpxZSB5AjmYLgqDTarXOW8yeS2PVxRfSWYTHbVY3T2FWWXfej2/HI4tbdGkHMx4rOhXVpOXYc4dGGzGg3RTuJbaiuFZUu1IqqlndtqPIWjqVdGNoYGT+HdEKMdpqFTem3X99G1AVWJcq67MKV94l509xyaP9lD999LIMqBvBVM02bWzJXXdslM9s3SjXXXNlP8AfnF2WZ7+/KK+8tjwkd6IyeQtqZimy0bDNgqFZ5zrZ8chiW89LGotl0vHgjkcWzYKhe547NNrrsVhlTgt3fepOmkHnvAN+3bTiMd150xpY7ddxNNHvHy4A2pgd8x0lLV1QlM8MslKXLXBcGqAv82cBvSwDajX0A9DrdOPmDfL7v3GN7Pjs6JpAyrjzthH58q9dI1+67+pBvw1V8+k2K3JubdfTQOqkxaB2073Y0RasuqStP1QW689K2UT2SAkVVa1P/iaw0jRvT9rGJWfvtyYrM91JAUxSoFZ1/rROy6DkzwSNKQN6gWCqJtdds0Ee/MLVMrqxlXnBe8Y3yh4CKh9FWpdEF850bsnRbsEXC17TNa3HHLowN9c5HitlCn+ZhZ9Ld07SsWU88fekm0Fbq8rcZLjXyswX8a7Qc0ldiDXkT0n4PRLTMmj5M9SwMqB2BFM12TmxKTeQCpmAatvN9MAWYbFkQRqfcUZFznUan7XjkcWHLFqk4h7Q1qy6xMd57C1jUKwOPHUplOPXnC1p3EbqxrVVG7D1pqrMF1ljjSrJn3Kltck2LQOXPyOaUgbUjmCqBqZL7xbHldZ/+TOjffptG6HR3XUFz7FZ/DNJ3h6EZUqq8MvYh861kii90NX99KwqBV03yKwNZbaNMYPF3y47PQOgjHyR9BlZQWdV+dM1LT3NnxVrShlQu6Fq/tj/8G55vvNM7df9nd97SH77i1kz6Ne7dfN7cvSP1w95+fKj/b6FWy1cu88KdfGFdA++vL0B41zTWLSFqe6WqcOxQt0EFdNFn7z1ifSA42nxKdpelYw+WbukYd1MLVPZmdXQPdMwSMrIF/FKeiFnFlxa/pzxXRTWMS29zp9VakoZUDtapmrwydu3Ol/k+uuLzu6HBkYu45jKWErA5TOKBG+uXXy108IyPvZjLGXmkq2jJTxxT3iuUXPYcTxKUiV62DMgSnq6b/SK0Dl888UTCfkiM1jNyJ9PFE2E/qZJ38NlDFTd+bMyDS4DKkcwhUHluvimr6qv93TB9NXdlJm0XYoZN+FcmOo5RQadJgYzBT4nTINTN4W2ciRttHui4OKjEylP5v0+jsonX8S7yhYsZ8NNJwShJph5wjXY1eNPJKRlPqcVsqf5swZNKANqN1TdfNOPnYgtxhnEFuY0r4PLr+OLdq7E3g8i72Udd/MNbuOljFffWJGpvzovZkvlblfTpa9hxQQsX7E40KuLL+TY1VckmHo1tkCnraKzGwsxT6bt9uRUwtP+fg0kpvK6VDR4iFeY52yfTs3n6+bC0ULYFOYHbKefp6RhXtNhU7ib2XenYu+ZzzrVbk9aT4PXbWeSnswLd5s0QPS39M0XoSmbr6X5c1/Cb7NXg6ojNt2xOkYp3p0l+t0y09KQ/FmZJpQBvcCUsRq89taKvHsxkGuvsZvNZ7xwerGPv3Hv6WroZyy6x8oMNk5aBFNmY+NOgc9+vOBipLVvV2PGiphKKaE1xRTyZuPeGS344+vShDOikgab7k6oALMcSahUDuvK09NJM6i0oN+Vsvp4WElatSCY1cm1Qok/jY9pOg5oOsIKcF4roQk9JrwPSYFD2lIJ/SJe0drki6ytdqZcZjtm/Dbm9z+qv81M+LvE0jGes5/ilOXK9D3Nn1VrSBlQK4KpmvznSx/KF3/pI1YXe+PcirxwemkAvnXP2Wx8XObWKzZ7AxYKbp47NHpyxyOLrlvXfK1Xq6B3OnMHIyt4x+11nJ0zpRWgy/VnUyrMy5Wyft6sVpBZ3W+motpdIA3TenxS98a6QcOWnx2mpW83O9aKNum3cc0XonnDeWB/zm9TZMDzOU2L1TYwTcifVet1GVA3xkzV5NXXluXU9/Jbm86/15V/ePr9AfnWPZfX6lS0lSiRftaZnMN8WsIechhY/zfPHRr9qse1vHU6c1P6tFy04jddAfcWnQWn5+V1/+zKqahM5bi96D54mobdJQ0Wn9X70febHEfuS9G8Yc7b5zNDUs+912H7mTTh7+K0n14T8mfVel0G1IlgqkZz31uUJ//rA7lwMXnT5JcWlmT6m+/JO+8yMKoMQRAc04Hbaf++XsFlv551TU1TIc8dGjWDyXeKyGMZ55/XFqk615dKFamwXArDsBvLO3CIXN91sPasPu3v820FMq0Qnc7cdq1UinyfeX0y313WBsFNoF1z21MGLKcJ9y7cXnAz4DVM/up05u7V38b13nr/Lk3In1XrdRlQl5YZRN3Pzp5aNpXLd/IGlQfr3qtvAHr0/TAdN1y/QW7cskGu/egG+eHry/L6O11578NAut1LA81Xz+tK4gD01b+tvg4ir9d+p24gX3vq0FhPWyZQnR2PLG7VhTzNOlLmdUf/HdOgq3G0yX9vZOyJ6JN3WJGEYyjKWhF6DR1zEl5/LDI2Kbz+QuT6lQUtkbEvWas6z2t6Kk1LU1jmDXMfZqoMHnTM2q5IHgm72MKxbQuRdJT6uzQlf1ap12VAlQimehRMXQqUgjVB06XXBFMAAPQTuvkAAAA8EEwBAAB4IJgCAADwQDAFAADggWAKAADAA8EUAACAB4IpAAAADwRTAAAAHgZho+N3dKsOrNWTDW4BABg2fb8COgAAQC/RzQcAAOCBYAoAAMADwRQAAIAHgikAAAAPBFMAAAAeCKYAAAA8EEwBAAB4IJgCAADwQDAFAADggWAKAADAA8EUAACAB4IpAAAADwRTAAAAHgimAAAAPBBMAQAAeCCYAgAA8EAwBQAA4IFgCgAAwAPBFAAAgAeCKQAAAA8EUwAAAB4IpgAAADwQTAEAAHggmAIAAPBAMAUAAOCBYAoAAMADwRQAAIAHgikAAAAPBFMAAAAeCKYAAAA8EEwBAAB4IJgCAADwQDAFAADggWAKAADAA8EUAACAB4IpAAAADwRTAAAAHgimAAAAPBBMAQAAeCCYAgAAKEpE/h8CohsepFUY4QAAAABJRU5ErkJggg==;" vertex="1" parent="1">
                    <mxGeometry x="831.23" y="153.2" width="155.55" height="40" as="geometry"/>
                </mxCell>
                <mxCell id="25" value="&lt;font color=&quot;#000000&quot;&gt;&lt;span style=&quot;font-size: 16px;&quot;&gt;Affiche de manière claire pour &lt;br&gt;les humains via une interface&lt;br&gt;&amp;nbsp;graphique et permet&lt;br&gt;&amp;nbsp;de pouvoir faire&lt;br&gt;&amp;nbsp;des requêtes&lt;/span&gt;&lt;/font&gt;" style="text;strokeColor=none;fillColor=none;html=1;fontSize=9;fontStyle=1;verticalAlign=middle;align=center;" vertex="1" parent="1">
                    <mxGeometry x="852.0000000000001" y="182.99999999999997" width="130.75" height="113.6" as="geometry"/>
                </mxCell>
            </root>
        </mxGraphModel>
    </diagram>
</mxfile>